<svg width="40px" height="40px" viewBox="0 0 40 40" version="1.1" xmlns="http://www.w3.org/2000/svg" xmlns:xlink="http://www.w3.org/1999/xlink">
    <title>E757DC15-797E-4C34-9A9F-75DACF83F529_White</title>
    <g id="🚀-Layouts" stroke="none" stroke-width="1" fill="none" fill-rule="evenodd" opacity="0.5">
        <g id="005_Startseite-Suchkonzept" transform="translate(-1193.000000, -3391.000000)" fill="#A4AFB3">
            <g id="Group" transform="translate(80.000000, 882.000000)">
                <g id="Footer/Desktop-2" transform="translate(0.000000, 2425.000000)">
                    <g id="Group-14" transform="translate(55.000000, 80.000000)">
                        <g id="Menu" transform="translate(674.000000, 4.000000)">
                            <g id="Group" transform="translate(240.000000, 0.000000)">
                                <g id="Instagram" transform="translate(144.000000, 0.000000)">
                                    <path d="M20,0 C31.0456955,0 40,8.95430446 40,20 C40,31.0456955 31.0456955,40 20,40 C8.95430446,40 0,31.0456955 0,20 C0,8.95430446 8.95430446,0 20,0 Z M20.8458551,9.33380209 L19.1530251,9.33380209 C17.0172875,9.33649663 16.6186156,9.35154781 15.602732,9.39777845 C14.4671646,9.44977899 13.6920454,9.62955864 13.0138161,9.89333917 C12.3122533,10.1657864 11.7171359,10.5302347 11.1242409,11.123352 C10.5309014,11.716247 10.1664531,12.3113644 9.89311694,13.012705 C9.62866974,13.6911565 9.44866787,14.4664979 9.39755622,15.6016209 C9.35211924,16.6175044 9.33662163,17.0163536 9.33382231,19.1521291 L9.33380892,20.8480505 C9.33577469,22.3856449 9.34420845,23.0223837 9.36595867,23.6375865 L9.37371135,23.8430627 C9.38059856,24.0156385 9.388572,24.1940913 9.39777845,24.397268 C9.45000122,25.5328354 9.62978087,26.3079546 9.89333917,26.9861839 C10.1660087,27.6877467 10.5304569,28.2828641 11.1235742,28.8757591 C11.716247,29.4690986 12.3113644,29.8344358 13.0124828,30.1068831 C13.6911565,30.3706636 14.4664979,30.5504432 15.6018431,30.6024438 C16.5770913,30.6468252 16.9833541,30.6624716 18.903685,30.6660363 L21.0957636,30.6660363 C23.0161879,30.6624716 23.4217975,30.6468252 24.3970458,30.6024438 C25.5326132,30.5504432 26.3086213,30.3706636 26.987295,30.1068831 C27.6886356,29.8344358 28.2828641,29.4690986 28.8755369,28.8757591 C29.4688764,28.2828641 29.8333247,27.6877467 30.1066608,26.9864061 C30.3688858,26.3079546 30.5488877,25.5326132 30.6022216,24.3974903 C30.6478569,23.3816067 30.6633758,22.9836433 30.6661774,20.8480576 L30.6661774,19.1521362 C30.6633758,17.0163986 30.6478569,16.6177267 30.6022216,15.6018431 C30.5488877,14.4662757 30.3688858,13.6911565 30.1066608,13.0129272 C29.8333247,12.3113644 29.4688764,11.716247 28.8755369,11.123352 C28.2821974,10.5300125 27.6888579,10.1655642 26.9866283,9.89333917 C26.3066212,9.62955864 25.5310576,9.44977899 24.3954902,9.39777845 C24.1923135,9.38853232 24.0138678,9.38053337 23.8412986,9.37363102 L23.6358295,9.36586492 C23.0206446,9.34408791 22.3838777,9.33574216 20.8458551,9.33380209 Z" id="Combined-Shape"></path>
                                    <path d="M19.0441012,11.2529089 L19.0441012,11.2555756 L20.5740683,11.2557432 C20.663576,11.255801 20.750182,11.2558745 20.8340365,11.2559653 L21.3053476,11.2567281 C22.994686,11.2605303 23.3874242,11.274925 24.3112671,11.3169096 C25.351278,11.3644656 25.9157283,11.5382452 26.2917322,11.6842467 C26.7895152,11.8775821 27.1444078,12.1086956 27.5175228,12.4820328 C27.89086,12.85537 28.1219735,13.2109293 28.3157533,13.7087122 C28.4617548,14.0842717 28.6357566,14.648722 28.6830904,15.6887329 C28.7287258,16.6927116 28.7424732,17.0695579 28.7448951,19.1650076 L28.7448951,20.8303256 C28.7424732,22.9257754 28.7287258,23.3026217 28.6830904,24.3066004 C28.6355344,25.3466112 28.4617548,25.9110616 28.3157533,26.286621 C28.1224179,26.784404 27.89086,27.1388521 27.5175228,27.5119671 C27.1441855,27.8853044 26.7897374,28.1164179 26.2917322,28.3097532 C25.9161727,28.4564214 25.351278,28.6297566 24.3112671,28.6773126 C23.3072884,28.722948 22.9304421,28.7366953 20.8340433,28.7391173 L19.1678998,28.7391173 C17.0713808,28.7366953 16.6947116,28.722948 15.6907329,28.6773126 C14.6507221,28.6293121 14.0862717,28.4555325 13.7100456,28.309531 C13.2122626,28.1161957 12.8567034,27.8850821 12.4833661,27.5117449 C12.1100289,27.1384077 11.8789154,26.7837373 11.6851356,26.2857321 C11.5391341,25.9101727 11.3651323,25.3457224 11.3177984,24.3057115 C11.2776393,23.4222103 11.262723,23.0243603 11.2581744,21.5127461 L11.2566321,20.56816 C11.2565744,20.4786376 11.2565325,20.3862132 11.256505,20.2907366 L11.2564645,19.9949999 C11.2564645,19.7915375 11.2565166,19.6008938 11.2566321,19.4218659 L11.2581744,18.4774637 C11.262723,16.9663199 11.2776393,16.5695674 11.3177984,15.6860662 C11.3653545,14.6460553 11.5391341,14.081605 11.6851356,13.7056011 C11.878471,13.2078181 12.1100289,12.8522589 12.4833661,12.4789217 C12.8567034,12.1055844 13.2122626,11.8744709 13.7100456,11.6806911 C14.0860495,11.5340229 14.6507221,11.3606878 15.6907329,11.3129095 C16.5810279,11.2726975 16.9779783,11.257953 18.517906,11.2538634 L19.0441012,11.2529089 L19.0441012,11.2529089 Z M20.0007778,14.5222763 C16.9758574,14.5222763 14.5231652,16.9749685 14.5231652,20.0001111 C14.5231652,23.0252537 16.9758574,25.4768348 20.001,25.4768348 C23.0261426,25.4768348 25.477946,23.0252537 25.477946,20.0001111 C25.477946,16.9749685 23.0259204,14.5222763 20.0007778,14.5222763 Z M25.6948371,13.0262607 C24.9881631,13.0267051 24.4148238,13.5993778 24.4148238,14.306274 C24.4148238,15.0129481 24.9881631,15.5862874 25.6948371,15.5862874 C26.4015111,15.5862874 26.9748504,15.0129481 26.9748504,14.306274 C26.9748504,13.5996 26.4015111,13.0262607 25.6948371,13.0262607 Z" id="Combined-Shape"></path>
                                    <path d="M20.001,16.4445185 C21.964576,16.4445185 23.5565926,18.0363129 23.5565926,20.0001111 C23.5565926,21.9636871 21.964576,23.5557037 20.001,23.5557037 C18.0372018,23.5557037 16.4454074,21.9636871 16.4454074,20.0001111 C16.4454074,18.0363129 18.0372018,16.4445185 20.001,16.4445185 L20.001,16.4445185 Z" id="Shape"></path>
                                </g>
                            </g>
                        </g>
                    </g>
                </g>
            </g>
        </g>
    </g>
</svg>