<svg width="40px" height="40px" viewBox="0 0 40 40" version="1.1" xmlns="http://www.w3.org/2000/svg" xmlns:xlink="http://www.w3.org/1999/xlink">
    <title>TikTok</title>
    <g id="👾-Symbols" stroke="none" stroke-width="1" fill="none" fill-rule="evenodd" opacity="0.5">
        <g id="Footer/Desktop-5" transform="translate(-1185.000000, -84.000000)" fill="#A4AFB3">
            <g id="Group-14" transform="translate(55.000000, 80.000000)">
                <g id="Menu" transform="translate(674.000000, 4.000000)">
                    <g id="Group" transform="translate(168.000000, 0.000000)">
                        <g id="TikTok" transform="translate(288.000000, 0.000000)">
                            <path d="M0,20 C0,8.95430446 8.95430446,0 20,0 C31.0456955,0 40,8.95430446 40,20 C40,31.0456955 31.0456955,40 20,40 C8.95430446,40 0,31.0456955 0,20 Z M27.5093808,13.9188794 C27.3536361,13.8386477 27.202019,13.7506948 27.0550988,13.6553509 C26.6278605,13.373833 26.2361437,13.0421202 25.8883872,12.6673586 C25.0182809,11.6750539 24.693313,10.668375 24.5736133,9.96355606 L24.5784205,9.96355606 C24.4784304,9.37852277 24.5197725,9 24.5260218,9 L20.562952,9 L20.562952,24.2741124 C20.562952,24.4791854 20.562952,24.6818628 20.554299,24.8821445 C20.554299,24.9070599 20.5518954,24.9300588 20.5504533,24.9568908 C20.5504533,24.967911 20.5504533,24.9794105 20.5480496,24.9909099 C20.5480496,24.9937848 20.5480496,24.9966596 20.5480496,24.9995345 C20.4632198,26.1124107 19.8285483,27.1103247 18.8549478,27.6616515 C18.3552586,27.9449951 17.7900992,28.0936239 17.215206,28.09288 C15.3687539,28.09288 13.8722672,26.5922049 13.8722672,24.7388808 C13.8722672,22.8855567 15.3687539,21.3848816 17.215206,21.3848816 C17.5647306,21.3845583 17.9121038,21.4393797 18.2444312,21.547311 L18.2492384,17.5253868 C16.2096132,17.2627887 14.1527662,17.8625272 12.5767222,19.1793876 C11.8936481,19.7709376 11.3193849,20.4767611 10.8797745,21.2650959 C10.7124834,21.5525816 10.0812957,22.7077947 10.004861,24.5826803 C9.95678882,25.6468563 10.2774302,26.7493638 10.4302997,27.2050285 L10.4302997,27.2146114 C10.5264441,27.4829313 10.8990034,28.3985731 11.5061549,29.170472 C11.9957397,29.7896512 12.574168,30.3335673 13.2228122,30.7847039 L13.2228122,30.7751211 L13.2324266,30.7847039 C15.1509869,32.0841391 17.2781805,31.9988517 17.2781805,31.9988517 C17.6464134,31.9839982 18.8799453,31.9988517 20.2807684,31.3371555 C21.834461,30.603588 22.7189889,29.5106634 22.7189889,29.5106634 C23.2840712,28.8576299 23.7334042,28.1134159 24.0477037,27.3099608 C24.4063221,26.3703619 24.5260218,25.2434181 24.5260218,24.7930239 L24.5260218,16.6897619 C24.574094,16.7185104 25.2144153,17.1406352 25.2144153,17.1406352 C25.2144153,17.1406352 26.1369203,17.7299808 27.5762011,18.1137741 C28.6087914,18.3868855 30,18.4443826 30,18.4443826 L30,14.5230784 C29.5125482,14.5757841 28.5227422,14.4224584 27.5093808,13.9188794 Z" id="Combined-Shape"></path>
                        </g>
                    </g>
                </g>
            </g>
        </g>
    </g>
</svg>